<?xml version="1.0" standalone="no"?>
<!DOCTYPE svg PUBLIC "-//W3C//DTD SVG 20010904//EN"
 "http://www.w3.org/TR/2001/REC-SVG-20010904/DTD/svg10.dtd">
<svg version="1.0" xmlns="http://www.w3.org/2000/svg"
 width="300.000000pt" height="300.000000pt" viewBox="0 0 300.000000 300.000000"
 preserveAspectRatio="xMidYMid meet">
<metadata>
Created by potrace 1.10, written by Peter Selinger 2001-2011
</metadata>
<g transform="translate(0.000000,300.000000) scale(0.100000,-0.100000)"
fill="#000000" stroke="none">
<path d="M1352 2589 c-627 -81 -1068 -666 -967 -1285 62 -383 329 -716 687
-858 130 -51 148 -36 148 121 l0 110 -87 -4 c-160 -9 -242 33 -306 160 -29 57
-55 92 -98 130 -63 55 -73 76 -36 78 82 4 140 -29 201 -114 25 -34 61 -73 81
-86 44 -30 123 -38 193 -21 47 11 51 14 61 54 6 23 21 58 34 77 l23 34 -88 18
c-165 32 -289 112 -352 226 -91 168 -87 420 9 559 l34 50 -11 62 c-9 47 -9 78
0 132 18 104 24 111 80 103 55 -8 125 -36 204 -82 l56 -33 69 17 c91 22 320
22 420 0 l73 -16 67 40 c69 40 176 79 219 79 19 0 26 -8 39 -52 17 -58 20
-166 5 -217 -8 -29 -6 -38 16 -64 88 -105 114 -279 68 -461 -48 -188 -181
-302 -403 -344 -84 -16 -91 -19 -75 -32 9 -8 27 -35 38 -60 19 -40 21 -68 24
-255 3 -136 8 -215 15 -224 42 -50 319 88 482 241 166 155 287 377 331 606 19
98 18 309 -2 412 -53 284 -233 555 -475 716 -226 150 -512 218 -777 183z m340
-35 c131 -23 356 -110 390 -151 6 -7 14 -13 19 -13 16 0 103 -70 177 -143 280
-275 387 -702 272 -1087 -69 -232 -263 -481 -472 -605 -93 -55 -208 -105 -244
-105 -22 0 -24 4 -25 48 -7 356 -8 371 -28 417 l-20 46 22 8 c12 5 41 12 65
16 23 4 55 13 70 20 15 7 45 21 66 31 22 10 68 45 103 77 109 102 153 224 153
423 0 105 -22 181 -75 263 -29 47 -32 56 -23 83 13 36 5 166 -13 221 -14 43
-49 67 -89 61 -54 -9 -158 -47 -210 -78 l-55 -33 -115 17 c-137 21 -353 15
-401 -11 -21 -11 -57 -4 -78 15 -17 15 -91 50 -155 73 -59 21 -124 19 -141 -4
-33 -44 -51 -180 -34 -248 10 -41 9 -46 -30 -112 -22 -37 -48 -97 -57 -133
-30 -116 -3 -313 58 -433 52 -103 206 -209 346 -237 34 -7 62 -15 62 -18 0 -2
-8 -26 -17 -53 -20 -55 -42 -69 -111 -69 -94 0 -119 16 -212 133 -53 66 -133
109 -186 99 -23 -4 -64 -37 -64 -50 0 -12 63 -78 92 -96 14 -10 41 -47 60 -84
38 -76 125 -170 168 -181 68 -17 94 -21 157 -21 l72 0 -2 -93 -2 -92 -40 1
c-86 1 -309 134 -424 253 -161 164 -242 311 -295 534 -19 77 -24 125 -24 230
0 202 31 337 115 499 96 185 224 325 396 432 78 49 237 119 292 130 17 3 64
12 105 19 95 18 282 19 382 1z"/>
<path d="M765 1000 c3 -5 13 -10 21 -10 8 0 12 5 9 10 -3 6 -13 10 -21 10 -8
0 -12 -4 -9 -10z"/>
<path d="M815 970 c-8 -13 3 -30 21 -30 18 0 18 14 0 29 -10 8 -16 9 -21 1z"/>
<path d="M858 914 c-11 -10 3 -34 19 -34 8 0 13 7 11 17 -3 18 -20 27 -30 17z"/>
<path d="M912 834 c2 -11 11 -20 22 -22 13 -3 17 1 14 14 -2 11 -11 20 -22 22
-13 3 -17 -1 -14 -14z"/>
<path d="M982 788 c7 -20 48 -23 48 -4 0 11 -9 16 -26 16 -16 0 -24 -5 -22
-12z"/>
<path d="M1167 793 c-14 -13 -6 -23 18 -23 16 0 25 6 25 15 0 15 -31 21 -43 8z"/>
<path d="M1075 780 c-8 -13 20 -24 41 -16 20 8 9 26 -16 26 -10 0 -22 -5 -25
-10z"/>
</g>
</svg>
